<svg width="100" height="100" viewBox="0 0 100 100" fill="none" xmlns="http://www.w3.org/2000/svg">
<circle cx="50" cy="50" r="50" fill="white"/>
<g filter="url(#filter0_d_2_61)">
<path d="M46.816 58.744L30.88 30.392C31.1787 30.1787 31.6267 30.008 32.224 29.88C32.864 29.7093 33.4613 29.624 34.016 29.624C36.192 29.624 37.7493 30.5413 38.688 32.376L49.632 52.92L48.288 55.608L48.736 55.864L60.896 32.376C61.8773 30.5413 63.456 29.624 65.632 29.624C66.1867 29.624 66.7627 29.7093 67.36 29.88C68 30.008 68.4693 30.1787 68.768 30.392L52.832 58.744V70.584C52.832 72.2053 52.32 73.4427 51.296 74.296C50.272 75.1493 48.7787 75.576 46.816 75.576V58.744Z" fill="black"/>
</g>
<defs>
<filter id="filter0_d_2_61" x="29.88" y="29.624" width="45.888" height="53.9519" filterUnits="userSpaceOnUse" color-interpolation-filters="sRGB">
<feFlood flood-opacity="0" result="BackgroundImageFix"/>
<feColorMatrix in="SourceAlpha" type="matrix" values="0 0 0 0 0 0 0 0 0 0 0 0 0 0 0 0 0 0 127 0" result="hardAlpha"/>
<feOffset dx="3" dy="4"/>
<feGaussianBlur stdDeviation="2"/>
<feComposite in2="hardAlpha" operator="out"/>
<feColorMatrix type="matrix" values="0 0 0 0 0.979167 0 0 0 0 0.848611 0 0 0 0 0.848611 0 0 0 0.4 0"/>
<feBlend mode="normal" in2="BackgroundImageFix" result="effect1_dropShadow_2_61"/>
<feBlend mode="normal" in="SourceGraphic" in2="effect1_dropShadow_2_61" result="shape"/>
</filter>
</defs>
</svg>
